
<global>
amp_veltrack=0
ampeg_attack=0.002
ampeg_release=0.85
xf_cccurve=gain
xfin_hicc1=127
xfout_hicc1=127
xfout_locc1=127
</global>

<group>
group_label=RR1

<region>
hikey=F6
hivel=64
lokey=A#5
lovel=0
pitch_keycenter=A#5
sample=Sopranos_Ooh_staccatissimo_PP_A#5_RR1.opus
</region>

<region>
hivel=64
key=A5
lovel=0
sample=Sopranos_Ooh_staccatissimo_PP_A5_RR1.opus
</region>

<region>
hivel=64
key=C#5
lovel=0
sample=Sopranos_Ooh_staccatissimo_PP_C#5_RR1.opus
</region>

<region>
hivel=64
key=C5
lovel=0
sample=Sopranos_Ooh_staccatissimo_PP_C5_RR1.opus
</region>

<region>
hivel=64
key=D#5
lovel=0
sample=Sopranos_Ooh_staccatissimo_PP_D#5_RR1.opus
</region>

<region>
hivel=64
key=D5
lovel=0
sample=Sopranos_Ooh_staccatissimo_PP_D5_RR1.opus
</region>

<region>
hivel=64
key=E5
lovel=0
sample=Sopranos_Ooh_staccatissimo_PP_E5_RR1.opus
</region>

<region>
hivel=64
key=F#5
lovel=0
sample=Sopranos_Ooh_staccatissimo_PP_F#5_RR1.opus
</region>

<region>
hivel=64
key=F5
lovel=0
sample=Sopranos_Ooh_staccatissimo_PP_F5_RR1.opus
</region>

<region>
hivel=64
key=G#5
lovel=0
sample=Sopranos_Ooh_staccatissimo_PP_G#5_RR1.opus
</region>

<region>
hivel=64
key=G5
lovel=0
sample=Sopranos_Ooh_staccatissimo_PP_G5_RR1.opus
</region>

<region>
hivel=64
key=A#4
lovel=0
sample=Sopranos_Ooh_staccatissimo_PP_A#4_RR1.opus
</region>

<region>
hivel=64
key=A4
lovel=0
sample=Sopranos_Ooh_staccatissimo_PP_A4_RR1.opus
</region>

<region>
hivel=64
key=B4
lovel=0
sample=Sopranos_Ooh_staccatissimo_PP_B4_RR1.opus
</region>

<region>
hivel=64
key=C#4
lovel=0
sample=Sopranos_Ooh_staccatissimo_PP_C#4_RR1.opus
</region>

<region>
hivel=64
key=D#4
lovel=0
sample=Sopranos_Ooh_staccatissimo_PP_D#4_RR1.opus
</region>

<region>
hivel=64
key=D4
lovel=0
sample=Sopranos_Ooh_staccatissimo_PP_D4_RR1.opus
</region>

<region>
hivel=64
key=E4
lovel=0
sample=Sopranos_Ooh_staccatissimo_PP_E4_RR1.opus
</region>

<region>
hivel=64
key=F#4
lovel=0
sample=Sopranos_Ooh_staccatissimo_PP_F#4_RR1.opus
</region>

<region>
hivel=64
key=F4
lovel=0
sample=Sopranos_Ooh_staccatissimo_PP_F4_RR1.opus
</region>

<region>
hivel=64
key=G#4
lovel=0
sample=Sopranos_Ooh_staccatissimo_PP_G#4_RR1.opus
</region>

<region>
hivel=64
key=G4
lovel=0
sample=Sopranos_Ooh_staccatissimo_PP_G4_RR1.opus
</region>

<region>
hikey=C4
hivel=64
lokey=F3
lovel=0
sample=Sopranos_Ooh_staccatissimo_PP_C4_RR1.opus
</region>

<region>
hikey=F6
hivel=127
lokey=A#5
lovel=65
pitch_keycenter=A#5
sample=Sopranos_Ooh_staccatissimo_FF_A#5_RR1.opus
</region>

<region>
hivel=127
key=A5
lovel=65
sample=Sopranos_Ooh_staccatissimo_FF_A5_RR1.opus
</region>

<region>
hivel=127
key=D#5
lovel=65
sample=Sopranos_Ooh_staccatissimo_FF_D#5_RR1.opus
</region>

<region>
hivel=127
key=E5
lovel=65
sample=Sopranos_Ooh_staccatissimo_FF_E5_RR1.opus
</region>

<region>
hivel=127
key=F#5
lovel=65
sample=Sopranos_Ooh_staccatissimo_FF_F#5_RR1.opus
</region>

<region>
hivel=127
key=F5
lovel=65
sample=Sopranos_Ooh_staccatissimo_FF_F5_RR1.opus
</region>

<region>
hivel=127
key=G#5
lovel=65
sample=Sopranos_Ooh_staccatissimo_FF_G#5_RR1.opus
</region>

<region>
hivel=127
key=G5
lovel=65
sample=Sopranos_Ooh_staccatissimo_FF_G5_RR1.opus
</region>

<region>
hivel=127
key=A#4
lovel=65
sample=Sopranos_Ooh_staccatissimo_FF_A#4_RR1.opus
</region>

<region>
hivel=127
key=A4
lovel=65
sample=Sopranos_Ooh_staccatissimo_FF_A4_RR1.opus
</region>

<region>
hivel=127
key=B4
lovel=65
sample=Sopranos_Ooh_staccatissimo_FF_B4_RR1.opus
</region>

<region>
hivel=127
key=C#5
lovel=65
sample=Sopranos_Ooh_staccatissimo_FF_C#5_RR1.opus
</region>

<region>
hivel=127
key=C5
lovel=65
sample=Sopranos_Ooh_staccatissimo_FF_C5_RR1.opus
</region>

<region>
hivel=127
key=D5
lovel=65
sample=Sopranos_Ooh_staccatissimo_FF_D5_RR1.opus
</region>

<region>
hivel=127
key=F#4
lovel=65
sample=Sopranos_Ooh_staccatissimo_FF_F#4_RR1.opus
</region>

<region>
hivel=127
key=F4
lovel=65
sample=Sopranos_Ooh_staccatissimo_FF_F4_RR1.opus
</region>

<region>
hivel=127
key=G#4
lovel=65
sample=Sopranos_Ooh_staccatissimo_FF_G#4_RR1.opus
</region>

<region>
hivel=127
key=G4
lovel=65
sample=Sopranos_Ooh_staccatissimo_FF_G4_RR1.opus
</region>

<region>
hivel=127
key=C#4
lovel=65
sample=Sopranos_Ooh_staccatissimo_FF_C#4_RR1.opus
</region>

<region>
hikey=C4
hivel=127
lokey=F3
lovel=65
sample=Sopranos_Ooh_staccatissimo_FF_C4_RR1.opus
</region>

<region>
hivel=127
key=D#4
lovel=65
sample=Sopranos_Ooh_staccatissimo_FF_D#4_RR1.opus
</region>

<region>
hivel=127
key=D4
lovel=65
sample=Sopranos_Ooh_staccatissimo_FF_D4_RR1.opus
</region>

<region>
hivel=127
key=E4
lovel=65
sample=Sopranos_Ooh_staccatissimo_FF_E4_RR1.opus
</region>
</group>

<group>
group_label=RR2

<region>
hikey=F6
hivel=64
lokey=A#5
lovel=0
pitch_keycenter=A#5
sample=Sopranos_Ooh_staccatissimo_PP_A#5_RR2.opus
</region>

<region>
hivel=64
key=A5
lovel=0
sample=Sopranos_Ooh_staccatissimo_PP_A5_RR2.opus
</region>

<region>
hivel=64
key=C#5
lovel=0
sample=Sopranos_Ooh_staccatissimo_PP_C#5_RR2.opus
</region>

<region>
hivel=64
key=C5
lovel=0
sample=Sopranos_Ooh_staccatissimo_PP_C5_RR2.opus
</region>

<region>
hivel=64
key=D#5
lovel=0
sample=Sopranos_Ooh_staccatissimo_PP_D#5_RR2.opus
</region>

<region>
hivel=64
key=D5
lovel=0
sample=Sopranos_Ooh_staccatissimo_PP_D5_RR2.opus
</region>

<region>
hivel=64
key=E5
lovel=0
sample=Sopranos_Ooh_staccatissimo_PP_E5_RR2.opus
</region>

<region>
hivel=64
key=F#5
lovel=0
sample=Sopranos_Ooh_staccatissimo_PP_F#5_RR2.opus
</region>

<region>
hivel=64
key=F5
lovel=0
sample=Sopranos_Ooh_staccatissimo_PP_F5_RR2.opus
</region>

<region>
hivel=64
key=G#5
lovel=0
sample=Sopranos_Ooh_staccatissimo_PP_G#5_RR2.opus
</region>

<region>
hivel=64
key=G5
lovel=0
sample=Sopranos_Ooh_staccatissimo_PP_G5_RR2.opus
</region>

<region>
hivel=64
key=A#4
lovel=0
sample=Sopranos_Ooh_staccatissimo_PP_A#4_RR2.opus
</region>

<region>
hivel=64
key=A4
lovel=0
sample=Sopranos_Ooh_staccatissimo_PP_A4_RR2.opus
</region>

<region>
hivel=64
key=B4
lovel=0
sample=Sopranos_Ooh_staccatissimo_PP_B4_RR2.opus
</region>

<region>
hivel=64
key=C#4
lovel=0
sample=Sopranos_Ooh_staccatissimo_PP_C#4_RR2.opus
</region>

<region>
hivel=64
key=D#4
lovel=0
sample=Sopranos_Ooh_staccatissimo_PP_D#4_RR2.opus
</region>

<region>
hivel=64
key=D4
lovel=0
sample=Sopranos_Ooh_staccatissimo_PP_D4_RR2.opus
</region>

<region>
hivel=64
key=E4
lovel=0
sample=Sopranos_Ooh_staccatissimo_PP_E4_RR2.opus
</region>

<region>
hivel=64
key=F#4
lovel=0
sample=Sopranos_Ooh_staccatissimo_PP_F#4_RR2.opus
</region>

<region>
hivel=64
key=F4
lovel=0
sample=Sopranos_Ooh_staccatissimo_PP_F4_RR2.opus
</region>

<region>
hivel=64
key=G#4
lovel=0
sample=Sopranos_Ooh_staccatissimo_PP_G#4_RR2.opus
</region>

<region>
hivel=64
key=G4
lovel=0
sample=Sopranos_Ooh_staccatissimo_PP_G4_RR2.opus
</region>

<region>
hikey=C4
hivel=64
lokey=F3
lovel=0
sample=Sopranos_Ooh_staccatissimo_PP_C4_RR2.opus
</region>

<region>
hikey=F6
hivel=127
lokey=A#5
lovel=65
pitch_keycenter=A#5
sample=Sopranos_Ooh_staccatissimo_FF_A#5_RR2.opus
</region>

<region>
hivel=127
key=A5
lovel=65
sample=Sopranos_Ooh_staccatissimo_FF_A5_RR2.opus
</region>

<region>
hivel=127
key=D#5
lovel=65
sample=Sopranos_Ooh_staccatissimo_FF_D#5_RR2.opus
</region>

<region>
hivel=127
key=E5
lovel=65
sample=Sopranos_Ooh_staccatissimo_FF_E5_RR2.opus
</region>

<region>
hivel=127
key=F#5
lovel=65
sample=Sopranos_Ooh_staccatissimo_FF_F#5_RR2.opus
</region>

<region>
hivel=127
key=F5
lovel=65
sample=Sopranos_Ooh_staccatissimo_FF_F5_RR2.opus
</region>

<region>
hivel=127
key=G#5
lovel=65
sample=Sopranos_Ooh_staccatissimo_FF_G#5_RR2.opus
</region>

<region>
hivel=127
key=G5
lovel=65
sample=Sopranos_Ooh_staccatissimo_FF_G5_RR2.opus
</region>

<region>
hivel=127
key=A#4
lovel=65
sample=Sopranos_Ooh_staccatissimo_FF_A#4_RR2.opus
</region>

<region>
hivel=127
key=A4
lovel=65
sample=Sopranos_Ooh_staccatissimo_FF_A4_RR2.opus
</region>

<region>
hivel=127
key=B4
lovel=65
sample=Sopranos_Ooh_staccatissimo_FF_B4_RR2.opus
</region>

<region>
hivel=127
key=C#5
lovel=65
sample=Sopranos_Ooh_staccatissimo_FF_C#5_RR2.opus
</region>

<region>
hivel=127
key=C5
lovel=65
sample=Sopranos_Ooh_staccatissimo_FF_C5_RR2.opus
</region>

<region>
hivel=127
key=D5
lovel=65
sample=Sopranos_Ooh_staccatissimo_FF_D5_RR2.opus
</region>

<region>
hivel=127
key=F#4
lovel=65
sample=Sopranos_Ooh_staccatissimo_FF_F#4_RR2.opus
</region>

<region>
hivel=127
key=F4
lovel=65
sample=Sopranos_Ooh_staccatissimo_FF_F4_RR2.opus
</region>

<region>
hivel=127
key=G#4
lovel=65
sample=Sopranos_Ooh_staccatissimo_FF_G#4_RR2.opus
</region>

<region>
hivel=127
key=G4
lovel=65
sample=Sopranos_Ooh_staccatissimo_FF_G4_RR2.opus
</region>

<region>
hivel=127
key=C#4
lovel=65
sample=Sopranos_Ooh_staccatissimo_FF_C#4_RR2.opus
</region>

<region>
hikey=C4
hivel=127
lokey=F3
lovel=65
sample=Sopranos_Ooh_staccatissimo_FF_C4_RR2.opus
</region>

<region>
hivel=127
key=D#4
lovel=65
sample=Sopranos_Ooh_staccatissimo_FF_D#4_RR2.opus
</region>

<region>
hivel=127
key=D4
lovel=65
sample=Sopranos_Ooh_staccatissimo_FF_D4_RR2.opus
</region>

<region>
hivel=127
key=E4
lovel=65
sample=Sopranos_Ooh_staccatissimo_FF_E4_RR2.opus
</region>
</group>

<group>
group_label=RR3

<region>
hikey=F6
hivel=64
lokey=A#5
lovel=0
pitch_keycenter=A#5
sample=Sopranos_Ooh_staccatissimo_PP_A#5_RR3.opus
</region>

<region>
hivel=64
key=A5
lovel=0
sample=Sopranos_Ooh_staccatissimo_PP_A5_RR3.opus
</region>

<region>
hivel=64
key=C#5
lovel=0
sample=Sopranos_Ooh_staccatissimo_PP_C#5_RR3.opus
</region>

<region>
hivel=64
key=C5
lovel=0
sample=Sopranos_Ooh_staccatissimo_PP_C5_RR3.opus
</region>

<region>
hivel=64
key=D#5
lovel=0
sample=Sopranos_Ooh_staccatissimo_PP_D#5_RR3.opus
</region>

<region>
hivel=64
key=D5
lovel=0
sample=Sopranos_Ooh_staccatissimo_PP_D5_RR3.opus
</region>

<region>
hivel=64
key=E5
lovel=0
sample=Sopranos_Ooh_staccatissimo_PP_E5_RR3.opus
</region>

<region>
hivel=64
key=F#5
lovel=0
sample=Sopranos_Ooh_staccatissimo_PP_F#5_RR3.opus
</region>

<region>
hivel=64
key=F5
lovel=0
sample=Sopranos_Ooh_staccatissimo_PP_F5_RR3.opus
</region>

<region>
hivel=64
key=G#5
lovel=0
sample=Sopranos_Ooh_staccatissimo_PP_G#5_RR3.opus
</region>

<region>
hivel=64
key=G5
lovel=0
sample=Sopranos_Ooh_staccatissimo_PP_G5_RR3.opus
</region>

<region>
hivel=64
key=A#4
lovel=0
sample=Sopranos_Ooh_staccatissimo_PP_A#4_RR3.opus
</region>

<region>
hivel=64
key=A4
lovel=0
sample=Sopranos_Ooh_staccatissimo_PP_A4_RR3.opus
</region>

<region>
hivel=64
key=B4
lovel=0
sample=Sopranos_Ooh_staccatissimo_PP_B4_RR3.opus
</region>

<region>
hivel=64
key=C#4
lovel=0
sample=Sopranos_Ooh_staccatissimo_PP_C#4_RR3.opus
</region>

<region>
hivel=64
key=D#4
lovel=0
sample=Sopranos_Ooh_staccatissimo_PP_D#4_RR3.opus
</region>

<region>
hivel=64
key=D4
lovel=0
sample=Sopranos_Ooh_staccatissimo_PP_D4_RR3.opus
</region>

<region>
hivel=64
key=E4
lovel=0
sample=Sopranos_Ooh_staccatissimo_PP_E4_RR3.opus
</region>

<region>
hivel=64
key=F#4
lovel=0
sample=Sopranos_Ooh_staccatissimo_PP_F#4_RR3.opus
</region>

<region>
hivel=64
key=F4
lovel=0
sample=Sopranos_Ooh_staccatissimo_PP_F4_RR3.opus
</region>

<region>
hivel=64
key=G#4
lovel=0
sample=Sopranos_Ooh_staccatissimo_PP_G#4_RR3.opus
</region>

<region>
hivel=64
key=G4
lovel=0
sample=Sopranos_Ooh_staccatissimo_PP_G4_RR3.opus
</region>

<region>
hikey=C4
hivel=64
lokey=F3
lovel=0
sample=Sopranos_Ooh_staccatissimo_PP_C4_RR3.opus
</region>

<region>
hikey=F6
hivel=127
lokey=A#5
lovel=65
pitch_keycenter=A#5
sample=Sopranos_Ooh_staccatissimo_FF_A#5_RR3.opus
</region>

<region>
hivel=127
key=A5
lovel=65
sample=Sopranos_Ooh_staccatissimo_FF_A5_RR3.opus
</region>

<region>
hivel=127
key=D#5
lovel=65
sample=Sopranos_Ooh_staccatissimo_FF_D#5_RR3.opus
</region>

<region>
hivel=127
key=E5
lovel=65
sample=Sopranos_Ooh_staccatissimo_FF_E5_RR3.opus
</region>

<region>
hivel=127
key=F#5
lovel=65
sample=Sopranos_Ooh_staccatissimo_FF_F#5_RR3.opus
</region>

<region>
hivel=127
key=F5
lovel=65
sample=Sopranos_Ooh_staccatissimo_FF_F5_RR3.opus
</region>

<region>
hivel=127
key=G#5
lovel=65
sample=Sopranos_Ooh_staccatissimo_FF_G#5_RR3.opus
</region>

<region>
hivel=127
key=G5
lovel=65
sample=Sopranos_Ooh_staccatissimo_FF_G5_RR3.opus
</region>

<region>
hivel=127
key=A#4
lovel=65
sample=Sopranos_Ooh_staccatissimo_FF_A#4_RR3.opus
</region>

<region>
hivel=127
key=A4
lovel=65
sample=Sopranos_Ooh_staccatissimo_FF_A4_RR3.opus
</region>

<region>
hivel=127
key=B4
lovel=65
sample=Sopranos_Ooh_staccatissimo_FF_B4_RR3.opus
</region>

<region>
hivel=127
key=C#5
lovel=65
sample=Sopranos_Ooh_staccatissimo_FF_C#5_RR3.opus
</region>

<region>
hivel=127
key=C5
lovel=65
sample=Sopranos_Ooh_staccatissimo_FF_C5_RR3.opus
</region>

<region>
hivel=127
key=D5
lovel=65
sample=Sopranos_Ooh_staccatissimo_FF_D5_RR3.opus
</region>

<region>
hivel=127
key=F#4
lovel=65
sample=Sopranos_Ooh_staccatissimo_FF_F#4_RR3.opus
</region>

<region>
hivel=127
key=F4
lovel=65
sample=Sopranos_Ooh_staccatissimo_FF_F4_RR3.opus
</region>

<region>
hivel=127
key=G#4
lovel=65
sample=Sopranos_Ooh_staccatissimo_FF_G#4_RR3.opus
</region>

<region>
hivel=127
key=G4
lovel=65
sample=Sopranos_Ooh_staccatissimo_FF_G4_RR3.opus
</region>

<region>
hivel=127
key=C#4
lovel=65
sample=Sopranos_Ooh_staccatissimo_FF_C#4_RR3.opus
</region>

<region>
hikey=C4
hivel=127
lokey=F3
lovel=65
sample=Sopranos_Ooh_staccatissimo_FF_C4_RR3.opus
</region>

<region>
hivel=127
key=D#4
lovel=65
sample=Sopranos_Ooh_staccatissimo_FF_D#4_RR3.opus
</region>

<region>
hivel=127
key=D4
lovel=65
sample=Sopranos_Ooh_staccatissimo_FF_D4_RR3.opus
</region>

<region>
hivel=127
key=E4
lovel=65
sample=Sopranos_Ooh_staccatissimo_FF_E4_RR3.opus
</region>
</group>

<group>
group_label=RR4

<region>
hikey=F6
hivel=64
lokey=A#5
lovel=0
pitch_keycenter=A#5
sample=Sopranos_Ooh_staccatissimo_PP_A#5_RR4.opus
</region>

<region>
hivel=64
key=A5
lovel=0
sample=Sopranos_Ooh_staccatissimo_PP_A5_RR4.opus
</region>

<region>
hivel=64
key=C#5
lovel=0
sample=Sopranos_Ooh_staccatissimo_PP_C#5_RR4.opus
</region>

<region>
hivel=64
key=C5
lovel=0
sample=Sopranos_Ooh_staccatissimo_PP_C5_RR4.opus
</region>

<region>
hivel=64
key=D#5
lovel=0
sample=Sopranos_Ooh_staccatissimo_PP_D#5_RR4.opus
</region>

<region>
hivel=64
key=D5
lovel=0
sample=Sopranos_Ooh_staccatissimo_PP_D5_RR4.opus
</region>

<region>
hivel=64
key=E5
lovel=0
sample=Sopranos_Ooh_staccatissimo_PP_E5_RR4.opus
</region>

<region>
hivel=64
key=F#5
lovel=0
sample=Sopranos_Ooh_staccatissimo_PP_F#5_RR4.opus
</region>

<region>
hivel=64
key=F5
lovel=0
sample=Sopranos_Ooh_staccatissimo_PP_F5_RR4.opus
</region>

<region>
hivel=64
key=G#5
lovel=0
sample=Sopranos_Ooh_staccatissimo_PP_G#5_RR4.opus
</region>

<region>
hivel=64
key=G5
lovel=0
sample=Sopranos_Ooh_staccatissimo_PP_G5_RR4.opus
</region>

<region>
hivel=64
key=A#4
lovel=0
sample=Sopranos_Ooh_staccatissimo_PP_A#4_RR4.opus
</region>

<region>
hivel=64
key=A4
lovel=0
sample=Sopranos_Ooh_staccatissimo_PP_A4_RR4.opus
</region>

<region>
hivel=64
key=B4
lovel=0
sample=Sopranos_Ooh_staccatissimo_PP_B4_RR4.opus
</region>

<region>
hivel=64
key=C#4
lovel=0
sample=Sopranos_Ooh_staccatissimo_PP_C#4_RR4.opus
</region>

<region>
hivel=64
key=D#4
lovel=0
sample=Sopranos_Ooh_staccatissimo_PP_D#4_RR4.opus
</region>

<region>
hivel=64
key=D4
lovel=0
sample=Sopranos_Ooh_staccatissimo_PP_D4_RR4.opus
</region>

<region>
hivel=64
key=E4
lovel=0
sample=Sopranos_Ooh_staccatissimo_PP_E4_RR4.opus
</region>

<region>
hivel=64
key=F#4
lovel=0
sample=Sopranos_Ooh_staccatissimo_PP_F#4_RR4.opus
</region>

<region>
hivel=64
key=F4
lovel=0
sample=Sopranos_Ooh_staccatissimo_PP_F4_RR4.opus
</region>

<region>
hivel=64
key=G#4
lovel=0
sample=Sopranos_Ooh_staccatissimo_PP_G#4_RR4.opus
</region>

<region>
hivel=64
key=G4
lovel=0
sample=Sopranos_Ooh_staccatissimo_PP_G4_RR4.opus
</region>

<region>
hikey=C4
hivel=64
lokey=F3
lovel=0
sample=Sopranos_Ooh_staccatissimo_PP_C4_RR4.opus
</region>

<region>
hikey=F6
hivel=127
lokey=A#5
lovel=65
pitch_keycenter=A#5
sample=Sopranos_Ooh_staccatissimo_FF_A#5_RR4.opus
</region>

<region>
hivel=127
key=A5
lovel=65
sample=Sopranos_Ooh_staccatissimo_FF_A5_RR4.opus
</region>

<region>
hivel=127
key=D#5
lovel=65
sample=Sopranos_Ooh_staccatissimo_FF_D#5_RR4.opus
</region>

<region>
hivel=127
key=E5
lovel=65
sample=Sopranos_Ooh_staccatissimo_FF_E5_RR4.opus
</region>

<region>
hivel=127
key=F#5
lovel=65
sample=Sopranos_Ooh_staccatissimo_FF_F#5_RR4.opus
</region>

<region>
hivel=127
key=F5
lovel=65
sample=Sopranos_Ooh_staccatissimo_FF_F5_RR4.opus
</region>

<region>
hivel=127
key=G#5
lovel=65
sample=Sopranos_Ooh_staccatissimo_FF_G#5_RR4.opus
</region>

<region>
hivel=127
key=G5
lovel=65
sample=Sopranos_Ooh_staccatissimo_FF_G5_RR4.opus
</region>

<region>
hivel=127
key=A#4
lovel=65
sample=Sopranos_Ooh_staccatissimo_FF_A#4_RR4.opus
</region>

<region>
hivel=127
key=A4
lovel=65
sample=Sopranos_Ooh_staccatissimo_FF_A4_RR4.opus
</region>

<region>
hivel=127
key=B4
lovel=65
sample=Sopranos_Ooh_staccatissimo_FF_B4_RR4.opus
</region>

<region>
hivel=127
key=C#5
lovel=65
sample=Sopranos_Ooh_staccatissimo_FF_C#5_RR4.opus
</region>

<region>
hivel=127
key=C5
lovel=65
sample=Sopranos_Ooh_staccatissimo_FF_C5_RR4.opus
</region>

<region>
hivel=127
key=D5
lovel=65
sample=Sopranos_Ooh_staccatissimo_FF_D5_RR4.opus
</region>

<region>
hivel=127
key=F#4
lovel=65
sample=Sopranos_Ooh_staccatissimo_FF_F#4_RR4.opus
</region>

<region>
hivel=127
key=F4
lovel=65
sample=Sopranos_Ooh_staccatissimo_FF_F4_RR4.opus
</region>

<region>
hivel=127
key=G#4
lovel=65
sample=Sopranos_Ooh_staccatissimo_FF_G#4_RR4.opus
</region>

<region>
hivel=127
key=G4
lovel=65
sample=Sopranos_Ooh_staccatissimo_FF_G4_RR4.opus
</region>

<region>
hivel=127
key=C#4
lovel=65
sample=Sopranos_Ooh_staccatissimo_FF_C#4_RR4.opus
</region>

<region>
hikey=C4
hivel=127
lokey=F3
lovel=65
sample=Sopranos_Ooh_staccatissimo_FF_C4_RR4.opus
</region>

<region>
hivel=127
key=D#4
lovel=65
sample=Sopranos_Ooh_staccatissimo_FF_D#4_RR4.opus
</region>

<region>
hivel=127
key=D4
lovel=65
sample=Sopranos_Ooh_staccatissimo_FF_D4_RR4.opus
</region>

<region>
hivel=127
key=E4
lovel=65
sample=Sopranos_Ooh_staccatissimo_FF_E4_RR4.opus
</region>
</group>